HIERARCHY
ROOT hip
{
  OFFSET 0 0 0
  CHANNELS 6 Xposition Yposition Zposition Zrotation Yrotation Xrotation
  JOINT abdomen
  {
    OFFSET 0 20.6881 -0.73152
    CHANNELS 3 Zrotation Xrotation Yrotation
    JOINT chest
    {
      OFFSET 0 11.7043 -0.48768
      CHANNELS 3 Zrotation Xrotation Yrotation
      JOINT neck
      {
        OFFSET 0 22.1894 -2.19456
        CHANNELS 3 Zrotation Xrotation Yrotation
        JOINT head
        {
          OFFSET -0.24384 7.07133 1.2192
          CHANNELS 3 Zrotation Xrotation Yrotation
          JOINT leftEye
          {
            OFFSET 4.14528 8.04674 8.04672
            CHANNELS 3 Zrotation Xrotation Yrotation
            End Site
            {
              OFFSET 1 0 0
            }
          }
          JOINT rightEye
          {
            OFFSET -3.6576 8.04674 8.04672
            CHANNELS 3 Zrotation Xrotation Yrotation
            End Site
            {
              OFFSET 1 0 0
            }
          }
        }
      }
      JOINT rCollar
      {
        OFFSET -2.68224 19.2634 -4.8768
        CHANNELS 3 Zrotation Xrotation Yrotation
        JOINT rShldr
        {
          OFFSET -8.77824 -1.95073 1.46304
          CHANNELS 3 Zrotation Xrotation Yrotation
          JOINT rForeArm
          {
            OFFSET -28.1742 -1.7115 0.48768
            CHANNELS 3 Zrotation Xrotation Yrotation
            JOINT rHand
            {
              OFFSET -22.5879 0.773209 7.07136
              CHANNELS 3 Zrotation Xrotation Yrotation
              JOINT rThumb1
              {
                OFFSET -1.2192 -0.487915 3.41376
                CHANNELS 3 Zrotation Xrotation Yrotation
                JOINT rThumb2
                {
                  OFFSET -3.37035 -0.52449 3.41376
                  CHANNELS 3 Zrotation Xrotation Yrotation
                  End Site
                  {
                    OFFSET -1.78271 -1.18214 1.43049
                  }
                }
              }
              JOINT rIndex1
              {
                OFFSET -7.75947 0.938293 5.60832
                CHANNELS 3 Zrotation Xrotation Yrotation
                JOINT rIndex2
                {
                  OFFSET -2.54057 -0.884171 1.56538
                  CHANNELS 3 Zrotation Xrotation Yrotation
                  End Site
                  {
                    OFFSET -1.62519 -0.234802 1.16502
                  }
                }
              }
              JOINT rMid1
              {
                OFFSET -8.24714 1.18213 3.41376
                CHANNELS 3 Zrotation Xrotation Yrotation
                JOINT rMid2
                {
                  OFFSET -3.10165 -0.590103 1.0647
                  CHANNELS 3 Zrotation Xrotation Yrotation
                  End Site
                  {
                    OFFSET -2.48547 -0.328903 0.83742
                  }
                }
              }
              JOINT rRing1
              {
                OFFSET -8.82822 0.546677 1.51678
                CHANNELS 3 Zrotation Xrotation Yrotation
                JOINT rRing2
                {
                  OFFSET -2.60934 -0.819778 -0.0198488
                  CHANNELS 3 Zrotation Xrotation Yrotation
                  End Site
                  {
                    OFFSET -2.33842 -0.294052 0.168128
                  }
                }
              }
              JOINT rPinky1
              {
                OFFSET -8.27202 -0.0477905 -0.4584
                CHANNELS 3 Zrotation Xrotation Yrotation
                JOINT rPinky2
                {
                  OFFSET -1.82734 -0.647385 -0.700984
                  CHANNELS 3 Zrotation Xrotation Yrotation
                  End Site
                  {
                    OFFSET -1.69225 -0.51767 -0.607171
                  }
                }
              }
            }
          }
        }
      }
      JOINT lCollar
      {
        OFFSET 2.68224 19.2634 -4.8768
        CHANNELS 3 Zrotation Xrotation Yrotation
        JOINT lShldr
        {
          OFFSET 8.77824 -1.95073 1.46304
          CHANNELS 3 Zrotation Xrotation Yrotation
          JOINT lForeArm
          {
            OFFSET 28.1742 -1.7115 0.48768
            CHANNELS 3 Zrotation Xrotation Yrotation
            JOINT lHand
            {
              OFFSET 22.5879 0.773209 7.07136
              CHANNELS 3 Zrotation Xrotation Yrotation
              JOINT lThumb1
              {
                OFFSET 1.2192 -0.487915 3.41376
                CHANNELS 3 Zrotation Xrotation Yrotation
                JOINT lThumb2
                {
                  OFFSET 3.37035 -0.52449 3.41376
                  CHANNELS 3 Zrotation Xrotation Yrotation
                  End Site
                  {
                    OFFSET 1.78271 -1.18214 1.43049
                  }
                }
              }
              JOINT lIndex1
              {
                OFFSET 7.75947 0.938293 5.60832
                CHANNELS 3 Zrotation Xrotation Yrotation
                JOINT lIndex2
                {
                  OFFSET 2.54057 -0.884171 1.56538
                  CHANNELS 3 Zrotation Xrotation Yrotation
                  End Site
                  {
                    OFFSET 1.62519 -0.234802 1.16502
                  }
                }
              }
              JOINT lMid1
              {
                OFFSET 8.24714 1.18213 3.41376
                CHANNELS 3 Zrotation Xrotation Yrotation
                JOINT lMid2
                {
                  OFFSET 3.10165 -0.590103 1.0647
                  CHANNELS 3 Zrotation Xrotation Yrotation
                  End Site
                  {
                    OFFSET 2.48547 -0.328903 0.83742
                  }
                }
              }
              JOINT lRing1
              {
                OFFSET 8.82822 0.546677 1.51678
                CHANNELS 3 Zrotation Xrotation Yrotation
                JOINT lRing2
                {
                  OFFSET 2.60934 -0.819778 -0.0198488
                  CHANNELS 3 Zrotation Xrotation Yrotation
                  End Site
                  {
                    OFFSET 2.33842 -0.294052 0.168128
                  }
                }
              }
              JOINT lPinky1
              {
                OFFSET 8.27202 -0.0477905 -0.4584
                CHANNELS 3 Zrotation Xrotation Yrotation
                JOINT lPinky2
                {
                  OFFSET 1.82734 -0.647385 -0.700984
                  CHANNELS 3 Zrotation Xrotation Yrotation
                  End Site
                  {
                    OFFSET 1.69225 -0.51767 -0.607171
                  }
                }
              }
            }
          }
        }
      }
    }
  }
  JOINT rButtock
  {
    OFFSET -8.77824 4.35084 1.2192
    CHANNELS 3 Zrotation Xrotation Yrotation
    JOINT rThigh
    {
      OFFSET 0 -1.70687 -2.19456
      CHANNELS 3 Zrotation Xrotation Yrotation
      JOINT rShin
      {
        OFFSET 0 -36.8199 0.73152
        CHANNELS 3 Zrotation Xrotation Yrotation
        JOINT rFoot
        {
          OFFSET 0.73152 -45.1104 -5.12064
          CHANNELS 3 Zrotation Xrotation Yrotation
          End Site
          {
            OFFSET -1.1221 -3.69964 12.103
          }
        }
      }
    }
  }
  JOINT lButtock
  {
    OFFSET 8.77824 4.35084 1.2192
    CHANNELS 3 Zrotation Xrotation Yrotation
    JOINT lThigh
    {
      OFFSET 0 -1.70687 -2.19456
      CHANNELS 3 Zrotation Xrotation Yrotation
      JOINT lShin
      {
        OFFSET 0 -36.8199 0.73152
        CHANNELS 3 Zrotation Xrotation Yrotation
        JOINT lFoot
        {
          OFFSET -0.73152 -45.1104 -5.12064
          CHANNELS 3 Zrotation Xrotation Yrotation
          End Site
          {
            OFFSET 1.1221 -3.69964 12.103
          }
        }
      }
    }
  }
}
MOTION
Frames:	5
Frame Time:	0.00833333
1.64175 84.9173 -163.121 0.0 0.0 0.0 -0.140626 -0.000295011 -0.00400527 -0.038767 -0.000394543 -0.00671565 -6.87115e-17 7.95139e-16 1.86361e-17 -2.36057e-16 9.54166e-15 5.59082e-17 -0.0 0.0 0.0 -0.0 0.0 0.0 -1.33082e-18 -7.76503e-19 9.93923e-17 1.16233e-15 1.11816e-16 1.19271e-15 -1.43125e-14 5.96354e-15 3.18055e-15 -1.55841e-13 3.37934e-15 3.18055e-14 -3.71904e-13 1.50742e-14 8.26944e-14 -6.44857e-13 2.22639e-14 1.37559e-13 -3.66956e-13 1.47101e-14 7.63333e-14 7.73091 5.47488 0.417314 -3.72324e-13 1.43125e-14 8.26944e-14 2.90554 0.965183 0.102902 -3.61198e-13 1.58034e-14 8.11041e-14 10.2786 0.731801 0.0259123 -3.75902e-13 1.59028e-14 8.5875e-14 2.22167 -0.733487 -0.20892 -9.80638e-17 -1.16475e-18 -9.93923e-17 -2.75969e-15 -2.73329e-16 -7.95139e-16 -1.4064e-14 -6.75868e-15 3.18055e-15 -1.594e-13 -6.16232e-15 3.49861e-14 -3.73847e-13 -2.46968e-14 8.26944e-14 -6.36509e-13 -4.13472e-14 1.47896e-13 -3.76896e-13 -2.42517e-14 9.22361e-14 -7.73091 5.47488 -0.417314 -3.73665e-13 -2.46493e-14 8.26944e-14 -2.90554 0.965183 -0.102902 -3.79747e-13 -2.43511e-14 8.34896e-14 -10.2786 0.731801 -0.0259123 -3.68746e-13 -2.22639e-14 7.31528e-14 -2.22167 -0.733487 0.20892 -2.03217e-16 0.0 -3.88251e-19 0.41546 -2.89234 -0.0363697 -0.00657585 -0.313962 -0.0578459 -0.521693 3.20536 0.12542 2.03217e-16 0.0 3.88251e-19 -0.629345 -3.43714 0.0497309 0.00497783 0.672916 0.04323 0.523136 2.76331 -0.11651
1.80181 83.4601 -164.002 -0.7691 3.0996 1.6386 -0.386053 0.492703 0.0362407 0.828443 -0.991406 0.0202075 2.04322 -0.984518 0.235683 -3.25307 1.50503 -0.0705162 -0.0 0.0 0.0 -0.0 0.0 0.0 -3.43594e-15 -1.95015e-14 1.1606e-14 21.6379 1.93976 -1.17985 -3.40161 -1.41222 5.44893 0.000100669 -0.225719 -0.0317218 -1.83139e-11 -7.15123e-12 1.91234e-10 -3.15638e-11 -1.22025e-11 3.30455e-10 -1.83097e-11 -7.15018e-12 1.9123e-10 7.73091 5.47488 0.417314 -1.83147e-11 -7.1513e-12 1.91236e-10 2.90554 0.965183 0.102902 -1.83047e-11 -7.1504e-12 1.91234e-10 10.2786 0.731801 0.0259123 -1.83177e-11 -7.15008e-12 1.91239e-10 2.22167 -0.733487 -0.20892 -3.49071e-15 -1.94992e-14 1.14095e-14 -22.1399 8.55511 -0.0397935 4.0379 -1.80006 -6.34395 -0.00984921 -2.20177 0.308614 -6.89477e-11 -2.9084e-10 -2.66444e-11 -1.19954e-10 -5.04273e-10 -4.57825e-11 -6.89515e-11 -2.90839e-10 -2.66366e-11 -7.73091 5.47488 -0.417314 -6.89479e-11 -2.90841e-10 -2.66462e-11 -2.90554 0.965183 -0.102902 -6.89553e-11 -2.90841e-10 -2.66445e-11 -10.2786 0.731801 -0.0259123 -6.89437e-11 -2.90841e-10 -2.6654e-11 -2.22167 -0.733487 0.20892 -2.03217e-16 0.0 -3.88251e-19 -0.0874092 -5.58563 -1.0797 0.0203369 8.67424 0.108285 -1.15857 -0.662562 -5.89763 2.03217e-16 0.0 3.88251e-19 0.322592 -5.2458 -0.85154 -0.0096035 8.04659 -0.0804933 0.872409 -0.411938 4.40917
1.82276 83.4569 -163.981 -0.6808 3.1063 1.6837 -0.648228 1.01531 0.0802763 1.74584 -2.03816 0.0490669 4.21281 -2.0277 0.483315 -6.68778 3.09568 -0.149302 -0.0 0.0 0.0 -0.0 0.0 0.0 -7.62498e-15 -4.13797e-14 2.4025e-14 44.5983 3.98742 -2.42726 -6.70833 -2.86334 11.222 -6.77276e-05 -0.468676 -0.065868 -2.73012e-11 -3.13332e-11 4.02713e-10 -4.69774e-11 -5.38724e-11 6.95864e-10 -2.72979e-11 -3.13306e-11 4.02711e-10 7.73091 5.47488 0.417314 -2.73025e-11 -3.13325e-11 4.02717e-10 2.90554 0.965183 0.102902 -2.72938e-11 -3.13322e-11 4.02714e-10 10.2786 0.731801 0.0259123 -2.73048e-11 -3.13317e-11 4.0272e-10 2.22167 -0.733487 -0.20892 -7.63227e-15 -4.13743e-14 2.38324e-14 -45.5326 17.602 -0.0849696 7.87606 -3.62954 -13.0705 0.00559759 -4.5269 0.636066 -1.3972e-10 -6.10577e-10 -5.53906e-11 -2.43184e-10 -1.05869e-09 -9.5129e-11 -1.39725e-10 -6.10576e-10 -5.53848e-11 -7.73091 5.47488 -0.417314 -1.39721e-10 -6.10579e-10 -5.53945e-11 -2.90554 0.965183 -0.102902 -1.3973e-10 -6.1058e-10 -5.53918e-11 -10.2786 0.731801 -0.0259123 -1.39718e-10 -6.10582e-10 -5.54003e-11 -2.22167 -0.733487 0.20892 -2.03217e-16 0.0 -3.88251e-19 -0.728918 -8.42655 -2.19826 -0.0103365 18.1766 0.296138 -2.71169 -4.64808 -12.308 2.03217e-16 0.0 3.88251e-19 1.26454 -7.15525 -1.81221 0.010778 15.8422 -0.217915 1.78494 -3.72184 9.20957
1.8162 83.4557 -163.965 -0.669 3.0088 1.7025 -0.878986 1.4787 0.116768 2.56566 -2.97343 0.0741446 6.15399 -2.95335 0.707886 -9.74807 4.51508 -0.212134 -0.0 0.0 0.0 -0.0 0.0 0.0 -1.03051e-14 -5.85031e-14 3.46192e-14 65.1543 5.80939 -3.55581 -9.40944 -4.08365 16.3846 -0.000447854 -0.677155 -0.0951714 -5.41978e-11 -2.14838e-11 5.73537e-10 -9.34016e-11 -3.66519e-11 9.91089e-10 -5.41952e-11 -2.148e-11 5.73537e-10 7.73091 5.47488 0.417314 -5.41994e-11 -2.14825e-11 5.73543e-10 2.90554 0.965183 0.102902 -5.41918e-11 -2.14828e-11 5.7354e-10 10.2786 0.731801 0.0259123 -5.42012e-11 -2.1482e-11 5.73546e-10 2.22167 -0.733487 -0.20892 -1.0276e-14 -5.84952e-14 3.44274e-14 -66.3806 25.6653 -0.130974 10.9383 -5.1359 -19.1021 0.0420107 -6.60455 0.93134 -2.06095e-10 -8.72471e-10 -8.00984e-11 -3.5859e-10 -1.51274e-09 -1.37643e-10 -2.06101e-10 -8.7247e-10 -8.00943e-11 -7.73091 5.47488 -0.417314 -2.06096e-10 -8.72474e-10 -8.01041e-11 -2.90554 0.965183 -0.102902 -2.06106e-10 -8.72476e-10 -8.01006e-11 -10.2786 0.731801 -0.0259123 -2.06094e-10 -8.72479e-10 -8.01082e-11 -2.22167 -0.733487 0.20892 -2.03217e-16 0.0 -3.88251e-19 -1.39227 -10.9584 -3.20966 -0.0967062 26.6498 0.488753 -4.84842 -7.9973 -18.1244 2.03217e-16 0.0 3.88251e-19 2.05391 -8.85534 -2.67511 0.0632265 22.7936 -0.353134 3.06878 -6.57944 13.5508
1.80794 83.4506 -163.955 -0.6693 2.922 1.7599 -1.0296 1.79405 0.134361 3.13953 -3.63 0.0896775 7.50716 -3.58538 0.874011 -11.8812 5.50639 -0.234445 -0.0 0.0 0.0 -0.0 0.0 0.0 -9.2131e-15 -6.37396e-14 4.06515e-14 79.5306 7.07639 -4.37187 -11.1544 -4.87309 19.9849 -0.000783897 -0.799443 -0.112362 -1.25867e-10 7.34438e-11 6.42726e-10 -2.17352e-10 1.27795e-10 1.11085e-09 -1.25865e-10 7.34482e-11 6.42726e-10 7.73091 5.47488 0.417314 -1.25869e-10 7.34453e-11 6.42733e-10 2.90554 0.965183 0.102902 -1.25862e-10 7.34448e-11 6.4273e-10 10.2786 0.731801 0.0259123 -1.25871e-10 7.34458e-11 6.42736e-10 2.22167 -0.733487 -0.20892 -9.17514e-15 -6.37307e-14 4.04527e-14 -80.8952 31.2693 -0.168079 12.8813 -6.08627 -23.3293 0.0804295 -8.06421 1.14097 -2.61477e-10 -9.89758e-10 -9.47106e-11 -4.54435e-10 -1.71586e-09 -1.63077e-10 -2.61482e-10 -9.89758e-10 -9.47074e-11 -7.73091 5.47488 -0.417314 -2.61477e-10 -9.89762e-10 -9.47169e-11 -2.90554 0.965183 -0.102902 -2.61489e-10 -9.89764e-10 -9.47129e-11 -10.2786 0.731801 -0.0259123 -2.61475e-10 -9.89768e-10 -9.47201e-11 -2.22167 -0.733487 0.20892 -2.03217e-16 0.0 -3.88251e-19 -1.89688 -12.7299 -3.91551 -0.197261 32.5511 0.646793 -6.74683 -10.1655 -22.2491 2.03217e-16 0.0 3.88251e-19 2.58446 -10.0389 -3.27598 0.121753 27.6345 -0.458765 4.22849 -8.49317 16.6401
